<svg width="264" height="74" viewBox="0 0 264 74" fill="none" xmlns="http://www.w3.org/2000/svg">
<path d="M102.318 25.3717C104.94 25.3717 107.231 25.9011 109.191 26.9599C111.152 28.0187 112.663 29.5107 113.726 31.4358C114.813 33.3369 115.356 35.5388 115.356 38.0414C115.356 40.5201 114.813 42.7219 113.726 44.6471C112.663 46.5722 111.14 48.0642 109.156 49.123C107.195 50.1818 104.916 50.7112 102.318 50.7112H93V25.3717H102.318ZM101.928 45.369C104.219 45.369 106.003 44.7313 107.278 43.4559C108.554 42.1805 109.191 40.3757 109.191 38.0414C109.191 35.7072 108.554 33.8904 107.278 32.5909C106.003 31.2914 104.219 30.6417 101.928 30.6417H99.0584V45.369H101.928Z" fill="#152E4D"/>
<path d="M136.634 25.3717V30.3168H130.044V50.7112H123.985V30.3168H117.395V25.3717H136.634Z" fill="#152E4D"/>
<path d="M181.407 25.3717L174.924 50.7112H167.59L163.622 34.0348L159.512 50.7112H152.178L145.871 25.3717H152.355L155.933 43.8168L160.362 25.3717H167.023L171.274 43.8168L174.888 25.3717H181.407Z" fill="#152E4D"/>
<path d="M183.241 40.6043C183.241 38.5348 183.619 36.7179 184.375 35.1537C185.154 33.5896 186.205 32.3864 187.528 31.5441C188.851 30.7019 190.327 30.2807 191.957 30.2807C193.35 30.2807 194.567 30.5695 195.606 31.1471C196.669 31.7246 197.484 32.4826 198.05 33.4211V30.5695H204.109V50.7112H198.05V47.8596C197.46 48.7981 196.633 49.5561 195.57 50.1337C194.531 50.7112 193.315 51 191.921 51C190.315 51 188.851 50.5789 187.528 49.7366C186.205 48.8703 185.154 47.6551 184.375 46.0909C183.619 44.5027 183.241 42.6738 183.241 40.6043ZM198.05 40.6404C198.05 39.1003 197.625 37.885 196.775 36.9947C195.948 36.1043 194.933 35.6591 193.728 35.6591C192.523 35.6591 191.496 36.1043 190.646 36.9947C189.819 37.861 189.406 39.0642 189.406 40.6043C189.406 42.1444 189.819 43.3717 190.646 44.2861C191.496 45.1765 192.523 45.6217 193.728 45.6217C194.933 45.6217 195.948 45.1765 196.775 44.2861C197.625 43.3957 198.05 42.1805 198.05 40.6404Z" fill="#152E4D"/>
<path d="M219.51 45.4773V50.7112H216.428C214.231 50.7112 212.519 50.1698 211.291 49.0869C210.063 47.9799 209.449 46.1872 209.449 43.7086V35.6952H207.039V30.5695H209.449V25.6604H215.507V30.5695H219.475V35.6952H215.507V43.7807C215.507 44.3824 215.649 44.8155 215.932 45.0802C216.216 45.3449 216.688 45.4773 217.349 45.4773H219.51Z" fill="#152E4D"/>
<path d="M221.681 40.6404C221.681 38.5468 222.094 36.7179 222.921 35.1537C223.771 33.5896 224.94 32.3864 226.428 31.5441C227.94 30.7019 229.664 30.2807 231.601 30.2807C234.081 30.2807 236.148 30.9425 237.801 32.266C239.478 33.5896 240.576 35.4545 241.096 37.861H234.648C234.105 36.3209 233.053 35.5508 231.495 35.5508C230.384 35.5508 229.499 35.996 228.837 36.8864C228.176 37.7527 227.845 39.004 227.845 40.6404C227.845 42.2767 228.176 43.5401 228.837 44.4305C229.499 45.2968 230.384 45.7299 231.495 45.7299C233.053 45.7299 234.105 44.9599 234.648 43.4198H241.096C240.576 45.7781 239.478 47.631 237.801 48.9786C236.124 50.3262 234.057 51 231.601 51C229.664 51 227.94 50.5789 226.428 49.7366C224.94 48.8944 223.771 47.6912 222.921 46.127C222.094 44.5628 221.681 42.734 221.681 40.6404Z" fill="#152E4D"/>
<path d="M256.489 30.3529C258.756 30.3529 260.575 31.123 261.945 32.6631C263.315 34.1791 264 36.2727 264 38.9438V50.7112H257.977V39.7741C257.977 38.4265 257.634 37.3797 256.95 36.6337C256.265 35.8877 255.343 35.5147 254.186 35.5147C253.029 35.5147 252.107 35.8877 251.423 36.6337C250.738 37.3797 250.395 38.4265 250.395 39.7741V50.7112H244.337V24H250.395V33.2767C251.009 32.3864 251.848 31.6765 252.911 31.1471C253.973 30.6176 255.166 30.3529 256.489 30.3529Z" fill="#152E4D"/>
<circle cx="36.6184" cy="36.6184" r="34.1184" stroke="#6C5DD3" stroke-width="5"/>
<path d="M4.39417 50.5334L18.3092 34.0551L28.9285 50.5334L49.0686 17.2106L66.6455 54.5614" stroke="#6C5DD3" stroke-width="5"/>
</svg>
