<svg width="40" height="40" viewBox="0 0 40 40" fill="none" xmlns="http://www.w3.org/2000/svg">
<path fill-rule="evenodd" clip-rule="evenodd" d="M5.83475 22.9785V22.6136C5.88829 21.5338 6.23437 20.4875 6.8373 19.5827C7.84088 18.4958 8.52788 17.1639 8.82623 15.7266C8.82623 14.6158 8.82623 13.4892 8.92325 12.3784C9.42453 7.0307 14.7122 3.33334 19.9351 3.33334H20.0645C25.2875 3.33334 30.5751 7.0307 31.0926 12.3784C31.1896 13.4892 31.0926 14.6158 31.1734 15.7266C31.4758 17.1672 32.1621 18.5033 33.1623 19.5986C33.7698 20.4954 34.1164 21.5378 34.1649 22.6136V22.9627C34.201 24.4134 33.7013 25.828 32.7581 26.9457C31.5116 28.2525 29.8202 29.0655 28.004 29.2307C22.6784 29.802 17.3051 29.802 11.9794 29.2307C10.1653 29.0583 8.4763 28.2465 7.22538 26.9457C6.29671 25.8272 5.80378 24.421 5.83475 22.9785Z" stroke="#283E59" stroke-width="2" stroke-linecap="round" stroke-linejoin="round"/>
<path d="M15.9249 34.753C16.7571 35.7974 17.979 36.4734 19.3204 36.6312C20.6618 36.7891 22.012 36.4158 23.0721 35.594C23.3982 35.351 23.6916 35.0684 23.9453 34.753" stroke="#283E59" stroke-width="2" stroke-linecap="round" stroke-linejoin="round"/>
</svg>
