<svg width="40" height="40" viewBox="0 0 40 40" fill="none" xmlns="http://www.w3.org/2000/svg">
<path fill-rule="evenodd" clip-rule="evenodd" d="M35.8734 16.2548C34.8082 9.6991 29.2399 4.82203 22.6011 4.63005C22.2854 4.61768 21.9778 4.73132 21.746 4.94594C21.5142 5.16056 21.3773 5.45854 21.3654 5.77421V5.77421V5.881L22.1129 17.0633C22.1619 17.8161 22.8091 18.3883 23.5622 18.3448L34.775 17.5972C35.0909 17.5739 35.3845 17.4255 35.5907 17.185C35.7969 16.9444 35.8986 16.6316 35.8734 16.3158V16.2548Z" stroke="#283E59" stroke-width="2" stroke-linecap="round" stroke-linejoin="round"/>
<path d="M14.8361 11.2815C15.5493 11.1165 16.2792 11.4814 16.5752 12.151C16.6527 12.3085 16.6993 12.4794 16.7125 12.6545C16.865 14.8207 17.1854 19.5652 17.3685 22.1281C17.3997 22.5898 17.6137 23.02 17.963 23.3235C18.3123 23.627 18.7681 23.7788 19.2296 23.7452V23.7452L28.6423 23.1655C29.0625 23.1403 29.4745 23.2898 29.7807 23.5786C30.0869 23.8675 30.2602 24.2701 30.2594 24.6911V24.6911C29.8779 30.375 25.7942 35.1268 20.2322 36.3584C14.6702 37.5901 8.96217 35.0068 6.21668 30.0153C5.39709 28.5786 4.87807 26.9904 4.69112 25.3471C4.61121 24.8427 4.58055 24.3318 4.59959 23.8215C4.61578 17.7515 8.87877 12.5214 14.8208 11.2815" stroke="#283E59" stroke-width="2" stroke-linecap="round" stroke-linejoin="round"/>
</svg>
