<svg width="40" height="40" viewBox="0 0 40 40" fill="none" xmlns="http://www.w3.org/2000/svg"> <path d="M29.3248 18.2198C31.9954 18.2198 34.1618 16.0549 34.1618 13.3844C34.1618 10.7138 31.9954 8.54896 29.3248 8.54896" stroke="white" stroke-width="2" stroke-linecap="round" stroke-linejoin="round"/> <path d="M31.5485 23.4746C32.346 23.5296 33.1389 23.6426 33.9196 23.8183C35.0043 24.0307 36.309 24.4753 36.7735 25.4485C37.0698 26.0718 37.0698 26.7975 36.7735 27.4224C36.3105 28.3956 35.0043 28.8386 33.9196 29.0617" stroke="white" stroke-width="2" stroke-linecap="round" stroke-linejoin="round"/>
<path d="M10.4833 18.2198C7.81275 18.2198 5.64636 16.0549 5.64636 13.3844C5.64636 10.7138 7.81275 8.54896 10.4833 8.54896" stroke="white" stroke-width="2" stroke-linecap="round" stroke-linejoin="round"/>
<path d="M8.25965 23.4746C7.46215 23.5296 6.66924 23.6426 5.88854 23.8183C4.80382 24.0307 3.4991 24.4753 3.03618 25.4485C2.73826 26.0718 2.73826 26.7975 3.03618 27.4224C3.49757 28.3956 4.80382 28.8386 5.88854 29.0617" stroke="white" stroke-width="2" stroke-linecap="round" stroke-linejoin="round"/>
<path fill-rule="evenodd" clip-rule="evenodd" d="M19.8963 24.5159C25.3076 24.5159 29.9307 25.3348 29.9307 28.6119C29.9307 31.8874 25.3382 32.7369 19.8963 32.7369C14.4833 32.7369 9.86182 31.918 9.86182 28.6409C9.86182 25.3638 14.4543 24.5159 19.8963 24.5159Z" stroke="white" stroke-width="2" stroke-linecap="round" stroke-linejoin="round"/>
<path fill-rule="evenodd" clip-rule="evenodd" d="M19.8962 19.8415C16.3273 19.8415 13.4658 16.98 13.4658 13.4096C13.4658 9.84069 16.3273 6.97917 19.8962 6.97917C23.4651 6.97917 26.3267 9.84069 26.3267 13.4096C26.3267 16.98 23.4651 19.8415 19.8962 19.8415Z" stroke="white" stroke-width="2" stroke-linecap="round" stroke-linejoin="round"/>
</svg>
