<svg width="40" height="40" viewBox="0 0 40 40" fill="none" xmlns="http://www.w3.org/2000/svg">
<path d="M29.3248 18.2198C31.9954 18.2198 34.1618 16.0549 34.1618 13.3844C34.1618 10.7138 31.9954 8.54895 29.3248 8.54895" stroke="#283E59" stroke-width="2" stroke-linecap="round" stroke-linejoin="round"/>
<path d="M31.5485 23.4745C32.346 23.5295 33.1389 23.6425 33.9196 23.8182C35.0043 24.0306 36.309 24.4752 36.7735 25.4484C37.0698 26.0717 37.0698 26.7974 36.7735 27.4223C36.3105 28.3955 35.0043 28.8385 33.9196 29.0616" stroke="#283E59" stroke-width="2" stroke-linecap="round" stroke-linejoin="round"/>
<path d="M10.4833 18.2198C7.81275 18.2198 5.64636 16.0549 5.64636 13.3844C5.64636 10.7138 7.81275 8.54895 10.4833 8.54895" stroke="#283E59" stroke-width="2" stroke-linecap="round" stroke-linejoin="round"/>
<path d="M8.25965 23.4745C7.46215 23.5295 6.66924 23.6425 5.88854 23.8182C4.80382 24.0306 3.4991 24.4752 3.03618 25.4484C2.73826 26.0717 2.73826 26.7974 3.03618 27.4223C3.49757 28.3955 4.80382 28.8385 5.88854 29.0616" stroke="#283E59" stroke-width="2" stroke-linecap="round" stroke-linejoin="round"/>
<path fill-rule="evenodd" clip-rule="evenodd" d="M19.8963 24.5159C25.3076 24.5159 29.9307 25.3348 29.9307 28.6118C29.9307 31.8874 25.3382 32.7368 19.8963 32.7368C14.4833 32.7368 9.86182 31.918 9.86182 28.6409C9.86182 25.3638 14.4543 24.5159 19.8963 24.5159Z" stroke="#283E59" stroke-width="2" stroke-linecap="round" stroke-linejoin="round"/>
<path fill-rule="evenodd" clip-rule="evenodd" d="M19.8962 19.8415C16.3273 19.8415 13.4658 16.98 13.4658 13.4095C13.4658 9.84065 16.3273 6.97913 19.8962 6.97913C23.4651 6.97913 26.3267 9.84065 26.3267 13.4095C26.3267 16.98 23.4651 19.8415 19.8962 19.8415Z" stroke="#283E59" stroke-width="2" stroke-linecap="round" stroke-linejoin="round"/>
</svg>
